Coordinates
version=1
nRows=27
nColumns=12
inDegrees=yes

Units are S.I. units (second, meters, Newtons, ...)
Angles are in degrees

endheader
time	SC_y	SC_z	SC_x	AC_y	AC_z	AC_x	GH_y	GH_z	GH_yy	EL_x	PS_y
       0.0              -49.96          12.89          14.75          68.97         -9.069          11.73          74.11          71.63         -73.69          34.95          127.7
  0.003869              -49.96          12.89          14.75          68.96         -9.069          11.73           74.1          71.62         -73.69          34.95          127.7
  0.007738              -49.96          12.89          14.76          68.96         -9.069          11.73          74.09          71.61          -73.7          34.95          127.7
   0.01161              -49.96          12.89          14.76          68.95         -9.068          11.73          74.08           71.6          -73.7          34.95          127.6
   0.01548              -49.95          12.88          14.77          68.95         -9.068          11.73          74.07          71.59         -73.71          34.95          127.6
   0.01935              -49.95          12.88          14.77          68.95         -9.068          11.72          74.06          71.58         -73.71          34.95          127.6
   0.02321              -49.95          12.88          14.78          68.94         -9.067          11.72          74.04          71.57         -73.72          34.94          127.6
   0.02708              -49.94          12.88          14.78          68.94         -9.067          11.72          74.03          71.56         -73.72          34.94          127.6
   0.03095              -49.94          12.88          14.79          68.93         -9.067          11.72          74.02          71.55         -73.73          34.94          127.6
   0.03482              -49.94          12.88          14.79          68.92         -9.066          11.72           74.0          71.53         -73.74          34.94          127.6
   0.03869              -49.93          12.87           14.8          68.92         -9.066          11.71          73.99          71.52         -73.74          34.94          127.5
   0.04256              -49.93          12.87          14.81          68.91         -9.065          11.71          73.97           71.5         -73.75          34.93          127.5
   0.04643              -49.93          12.87          14.82           68.9         -9.065          11.71          73.95          71.49         -73.76          34.93          127.5
    0.0503              -49.92          12.87          14.82           68.9         -9.064           11.7          73.93          71.47         -73.77          34.93          127.5
   0.05417              -49.92          12.86          14.83          68.89         -9.063           11.7          73.91          71.45         -73.78          34.92          127.5
   0.05804              -49.91          12.86          14.84          68.88         -9.063           11.7          73.89          71.43         -73.79          34.92          127.4
   0.06191               -49.9          12.86          14.85          68.87         -9.062          11.69          73.86           71.4          -73.8          34.92          127.4
   0.06578               -49.9          12.85          14.87          68.86         -9.061          11.69          73.84          71.38         -73.81          34.91          127.4
   0.06964              -49.89          12.85          14.88          68.84          -9.06          11.68          73.81          71.35         -73.83          34.91          127.4
   0.07351              -49.88          12.84          14.89          68.83         -9.059          11.68          73.78          71.32         -73.84           34.9          127.3
   0.07738              -49.87          12.84          14.91          68.82         -9.058          11.67          73.74          71.29         -73.86           34.9          127.3
   0.08125              -49.86          12.83          14.93           68.8         -9.057          11.67           73.7          71.25         -73.88          34.89          127.2
   0.08512              -49.85          12.83          14.94          68.78         -9.055          11.66          73.66          71.21          -73.9          34.88          127.2
   0.08899              -49.84          12.82          14.97          68.76         -9.054          11.65          73.61          71.16         -73.92          34.88          127.1
   0.09286              -49.83          12.81          14.99          68.74         -9.052          11.64          73.56          71.11         -73.95          34.87          127.1
   0.09673              -49.81          12.81          15.01          68.72          -9.05          11.63           73.5          71.06         -73.98          34.86          127.0
    0.1006               -49.8           12.8          15.04          68.69         -9.048          11.62          73.43          70.99         -74.01          34.85          127.0
